<?xml version="1.0" standalone="no"?>
<!DOCTYPE svg PUBLIC "-//W3C//DTD SVG 20010904//EN"
 "http://www.w3.org/TR/2001/REC-SVG-20010904/DTD/svg10.dtd">
<svg version="1.0" xmlns="http://www.w3.org/2000/svg"
 width="1024.000000pt" height="1024.000000pt" viewBox="0 0 1024.000000 1024.000000"
 preserveAspectRatio="xMidYMid meet">

<g transform="translate(0.000000,1024.000000) scale(0.100000,-0.100000)"
fill="#000000" stroke="none">
<path d="M4735 7986 c-329 -48 -619 -174 -919 -400 l-119 -89 -131 18 c-256
36 -502 14 -740 -66 -352 -118 -618 -378 -695 -679 -10 -41 -16 -80 -14 -88
10 -24 28 -6 35 34 41 237 267 506 533 634 238 114 574 164 844 126 63 -9 116
-17 117 -19 2 -2 -48 -56 -112 -121 -282 -290 -471 -615 -519 -894 -26 -148
-13 -274 39 -388 52 -112 180 -211 305 -234 103 -19 257 -8 344 25 16 7 17
-14 17 -351 0 -338 -1 -361 -20 -391 -23 -38 -59 -58 -118 -66 -43 -5 -60 -13
-51 -22 8 -7 899 -7 959 0 338 41 595 165 757 365 151 187 217 376 216 625 0
118 -4 155 -26 237 -84 317 -337 578 -668 687 -177 58 -228 63 -731 68 -423 4
-468 3 -468 -11 0 -11 9 -16 33 -16 50 0 94 -32 107 -78 7 -26 9 -204 8 -518
l-3 -478 -55 -20 c-41 -14 -82 -20 -160 -20 -94 -1 -111 2 -155 25 -57 29
-116 100 -141 169 -24 69 -29 238 -10 346 53 308 234 633 517 928 l97 101 103
-28 c313 -83 498 -128 614 -148 345 -58 617 4 815 187 86 80 125 162 124 264
0 89 -21 137 -83 193 -49 44 -80 61 -156 82 -81 23 -366 29 -490 11z m427 -41
c89 -18 147 -45 196 -90 126 -113 80 -310 -103 -440 -211 -151 -459 -181 -840
-101 -201 42 -546 137 -548 151 -3 27 318 243 482 325 272 135 607 199 813
155z m-755 -996 c102 -14 235 -57 315 -102 80 -45 195 -150 254 -232 222 -312
269 -836 104 -1154 -104 -200 -301 -342 -539 -391 -120 -24 -327 -36 -453 -26
l-88 8 0 954 0 954 164 0 c91 0 200 -5 243 -11z"/>
<path d="M5698 5631 c-117 -38 -268 -142 -333 -230 -65 -89 -86 -150 -93 -268
l-7 -107 -58 -17 c-83 -25 -213 -92 -280 -144 -70 -55 -138 -145 -168 -223
-32 -80 -32 -196 0 -270 30 -68 112 -143 189 -173 84 -34 269 -34 362 -1 106
38 198 99 288 190 l83 85 27 -26 c44 -41 208 -143 336 -209 103 -52 117 -62
100 -71 -88 -48 -348 -285 -467 -426 -40 -48 -47 -52 -53 -35 -22 60 -148 351
-156 362 -13 15 -281 17 -395 2 -254 -34 -540 -204 -695 -413 -112 -152 -152
-260 -153 -412 0 -127 21 -189 87 -257 151 -156 464 -138 766 44 45 27 96 61
113 75 l31 26 -4 -319 c-4 -274 -7 -326 -22 -366 -30 -81 -132 -158 -209 -158
-10 0 -15 -4 -12 -10 8 -13 565 -14 565 0 0 5 -17 12 -37 15 -90 15 -161 66
-194 140 -29 66 -37 147 -44 437 l-7 276 134 134 c73 73 183 191 243 263 208
245 451 498 558 579 l38 29 102 -31 c56 -16 137 -38 180 -47 48 -11 77 -22 77
-30 0 -7 -20 -64 -45 -127 -24 -62 -67 -176 -95 -253 -28 -77 -76 -205 -105
-285 -30 -80 -84 -228 -121 -330 -163 -453 -148 -417 -164 -375 -6 17 -26 66
-45 110 -19 44 -91 217 -161 385 -69 168 -135 322 -146 343 l-19 38 -26 -33
c-15 -18 -56 -63 -92 -100 l-65 -67 24 -58 c13 -32 76 -182 140 -333 64 -151
156 -371 205 -487 49 -117 94 -213 101 -213 6 0 30 51 52 113 118 320 470
1290 514 1412 27 77 51 142 54 144 3 3 3 -330 2 -740 -3 -828 1 -783 -72 -847
-32 -28 -89 -52 -123 -52 -7 0 -13 -4 -13 -10 0 -6 82 -10 225 -10 124 0 225
3 225 6 0 3 -14 17 -31 32 -44 36 -79 115 -79 177 0 85 17 125 81 189 l59 59
0 637 0 637 183 6 c138 4 200 10 259 25 139 38 223 94 264 179 22 45 26 63 22
118 -6 92 -40 138 -138 188 -96 48 -167 61 -305 54 -228 -12 -566 -136 -858
-315 -37 -23 -77 -42 -88 -42 -22 0 -207 90 -304 148 -62 37 -205 139 -205
146 0 2 16 28 36 58 19 29 67 117 106 195 90 179 131 224 212 231 53 4 57 3
91 -31 30 -30 35 -42 35 -84 l1 -48 20 25 c36 42 9 122 -54 160 -53 33 -108
35 -190 9 -119 -38 -162 -92 -267 -332 -23 -53 -46 -99 -49 -102 -10 -5 -108
149 -154 240 -33 66 -74 191 -66 199 2 2 47 18 99 35 135 45 325 141 388 196
72 64 103 121 109 198 3 52 0 69 -19 101 -48 82 -169 109 -300 67z m212 -34
c40 -20 70 -74 70 -125 0 -104 -85 -194 -265 -282 -93 -46 -259 -110 -284
-110 -16 0 -13 84 4 159 37 153 164 309 293 356 47 17 149 19 182 2z m-592
-704 c42 -101 114 -206 204 -295 l77 -77 -43 -58 c-71 -96 -147 -160 -244
-206 -80 -37 -94 -41 -172 -41 -106 -1 -150 18 -186 80 -84 144 -39 363 108
520 63 67 207 170 219 156 4 -4 20 -39 37 -79z m2021 -369 c76 -17 164 -65
194 -105 22 -30 33 -101 23 -152 -14 -73 -123 -158 -241 -186 -99 -25 -218
-31 -380 -20 -191 12 -291 27 -486 75 -136 33 -180 48 -169 57 42 33 202 123
304 172 302 146 569 202 755 159z m-2119 -887 l0 -403 -116 -87 c-277 -209
-516 -272 -694 -182 -221 112 -194 470 56 735 187 198 471 335 707 339 l47 1
0 -403z m155 51 c41 -98 75 -186 75 -197 0 -21 -153 -194 -176 -199 -12 -3
-14 54 -13 325 l0 328 20 -40 c10 -22 53 -120 94 -217z"/>
<path d="M7054 2997 c-13 -12 -27 -36 -30 -52 -5 -26 1 -39 35 -80 48 -58 51
-72 14 -81 -92 -22 -227 -123 -265 -197 -29 -57 -35 -146 -14 -201 48 -125
218 -199 385 -167 24 5 47 15 52 22 6 11 20 1 55 -38 67 -77 173 -127 269
-127 123 0 235 68 293 179 24 44 27 61 27 150 0 89 -3 105 -27 151 -15 28 -50
72 -78 97 -68 61 -129 81 -233 75 -75 -5 -83 -3 -107 19 -43 41 -85 62 -138
70 l-51 8 35 55 c39 63 42 89 13 116 -17 16 -38 19 -116 21 -83 1 -97 -1 -119
-20z m166 -47 c12 -8 11 -13 -7 -38 -12 -17 -25 -42 -29 -56 -3 -14 -9 -26
-13 -26 -8 0 -51 99 -51 118 0 14 77 16 100 2z m115 -230 c24 -11 46 -23 49
-28 2 -4 -19 -23 -47 -43 -41 -27 -60 -50 -87 -103 -31 -61 -35 -79 -36 -149
-1 -54 -6 -82 -15 -88 -25 -15 -136 -21 -191 -10 -105 22 -162 104 -137 196
16 58 89 128 182 176 138 69 210 82 282 49z m-345 -39 c-13 -11 -29 -17 -34
-14 -5 3 2 12 15 19 36 20 48 16 19 -5z m-50 -14 c0 -2 -15 -16 -32 -33 l-33
-29 29 33 c28 30 36 37 36 29z m721 -32 c19 -10 53 -36 77 -59 98 -94 91 -262
-15 -356 -56 -49 -129 -74 -194 -67 -59 7 -135 45 -178 89 l-32 33 28 24 c69
57 105 96 123 132 30 58 42 129 32 177 -8 34 -7 42 7 46 30 9 118 -2 152 -19z
m117 -56 c18 -25 19 -27 3 -9 -12 14 -34 36 -49 49 -24 22 -25 22 -3 9 14 -8
36 -30 49 -49z m-448 10 c-12 -16 -25 -28 -28 -25 -5 6 36 56 45 56 3 0 -5
-14 -17 -31z m94 -2 c12 -48 -39 -150 -98 -198 -39 -32 -46 -5 -20 80 14 48
83 141 104 141 4 0 10 -10 14 -23z m29 -67 c-3 -11 -10 -23 -16 -27 -5 -3 -8
-2 -5 3 3 5 8 17 11 27 9 24 16 22 10 -3z m-23 -60 c-6 -11 -13 -20 -16 -20
-2 0 0 9 6 20 6 11 13 20 16 20 2 0 0 -9 -6 -20z m-153 -67 c-3 -10 -5 -4 -5
12 0 17 2 24 5 18 2 -7 2 -21 0 -30z"/>
</g>
</svg>
