<?xml version="1.0" standalone="no"?>
<!DOCTYPE svg PUBLIC "-//W3C//DTD SVG 20010904//EN"
 "http://www.w3.org/TR/2001/REC-SVG-20010904/DTD/svg10.dtd">
<svg version="1.0" xmlns="http://www.w3.org/2000/svg"
 width="1285.000000pt" height="1224.000000pt" viewBox="0 0 1285.000000 1224.000000"
 preserveAspectRatio="xMidYMid meet">

<g transform="translate(0.000000,1224.000000) scale(0.100000,-0.100000)"
fill="#000000" stroke="none">
<path d="M5885 9261 c-344 -34 -726 -197 -1029 -441 l-76 -62 -137 9 c-372 22
-611 -11 -854 -117 -178 -79 -356 -218 -454 -355 -80 -112 -148 -273 -156
-370 -7 -76 14 -50 41 50 15 55 37 122 49 150 38 85 127 209 199 277 268 253
656 372 1109 339 86 -6 158 -12 159 -14 2 -1 -36 -43 -82 -92 -326 -343 -523
-720 -563 -1074 -12 -109 -1 -224 30 -307 84 -223 331 -299 657 -203 11 3 13
-67 12 -390 -1 -484 4 -466 -144 -480 -39 -3 -71 -10 -71 -16 0 -14 855 -19
1017 -6 333 27 596 130 789 309 168 155 272 384 300 659 45 433 -196 833 -604
1003 -252 105 -376 120 -1014 120 -271 0 -493 -4 -493 -9 0 -4 29 -11 65 -13
73 -6 124 -31 143 -71 13 -26 13 -91 12 -948 l0 -115 -34 -16 c-92 -44 -276
-50 -352 -10 -56 29 -108 89 -134 158 -34 87 -32 261 4 397 95 365 327 757
623 1053 l24 24 117 -24 c64 -14 164 -36 222 -50 366 -87 511 -109 730 -110
124 -1 203 3 240 12 151 37 263 94 342 175 96 98 122 240 63 345 -49 90 -140
147 -298 187 -106 27 -318 39 -452 26z m460 -56 c102 -28 180 -71 229 -125 55
-62 70 -105 63 -180 -6 -73 -41 -133 -114 -200 -68 -63 -144 -102 -254 -132
-75 -20 -105 -23 -274 -22 -214 1 -322 16 -683 98 -108 25 -234 53 -280 62
-80 17 -82 18 -65 37 27 29 189 158 258 204 197 132 462 237 692 273 90 14
357 5 428 -15z m-653 -1018 c374 -97 604 -381 657 -812 42 -344 -44 -690 -226
-910 -89 -108 -246 -205 -398 -247 -71 -19 -112 -22 -352 -26 l-273 -4 0 1009
c0 556 3 1013 8 1017 4 5 115 6 247 3 213 -5 251 -8 337 -30z"/>
<path d="M6911 6884 c-136 -37 -274 -154 -340 -289 -39 -81 -63 -202 -59 -294
l3 -65 -55 -11 c-220 -45 -408 -187 -492 -372 -24 -54 -32 -86 -36 -154 -6
-106 12 -167 70 -240 139 -176 423 -198 648 -50 72 47 139 111 205 194 l30 38
70 -52 c98 -71 235 -151 376 -218 l120 -56 -108 -82 c-120 -90 -361 -308 -412
-372 -32 -40 -51 -52 -51 -31 0 5 -37 102 -82 215 l-81 205 -264 0 c-145 0
-263 -4 -263 -9 0 -4 29 -11 64 -13 78 -7 117 -28 148 -82 23 -41 23 -43 26
-432 l3 -390 -78 -77 c-269 -262 -482 -378 -673 -364 -125 8 -215 69 -267 181
-25 55 -28 71 -28 171 0 94 4 123 29 199 101 307 426 592 771 676 50 12 71 22
73 34 3 15 -1 17 -30 11 -135 -28 -346 -127 -468 -219 -258 -194 -410 -453
-410 -701 0 -172 75 -296 218 -363 52 -24 68 -27 172 -27 103 1 125 4 210 33
52 18 136 56 185 84 85 48 235 157 264 192 7 9 18 16 23 16 5 0 8 -148 6 -377
-3 -414 -4 -422 -66 -486 -29 -31 -105 -57 -165 -57 -26 0 -37 -4 -34 -12 3
-10 69 -13 280 -15 233 -1 277 1 277 13 0 9 -11 14 -33 14 -90 0 -178 52 -209
125 -9 22 -13 133 -16 430 l-3 400 64 65 c34 36 92 98 127 138 35 40 66 69 70
65 4 -4 71 -170 149 -368 78 -198 150 -380 161 -405 29 -69 66 -160 129 -324
32 -83 62 -151 67 -153 5 -1 19 23 31 55 12 31 92 246 178 477 86 231 185 497
221 590 35 94 115 306 178 473 62 167 117 306 120 309 4 4 5 -398 4 -893 -3
-846 -4 -901 -21 -925 -23 -34 -63 -51 -138 -58 -33 -3 -58 -10 -57 -16 3 -9
458 -19 458 -10 0 2 -16 26 -35 55 -46 68 -59 118 -60 220 0 73 4 93 28 142
16 32 51 82 78 112 l49 54 0 656 0 656 -58 0 c-32 0 -109 7 -172 15 -62 8
-114 14 -115 12 -1 -1 -14 -38 -30 -82 -15 -44 -69 -190 -121 -325 -162 -427
-404 -1079 -404 -1090 0 -34 -21 7 -69 133 -90 240 -239 624 -302 780 -32 81
-59 152 -59 157 0 16 276 315 381 412 155 144 193 172 217 159 10 -6 75 -26
143 -45 414 -116 859 -123 1082 -17 214 103 229 318 28 421 -105 53 -316 74
-483 46 -203 -33 -482 -148 -704 -289 -116 -74 -97 -74 -274 11 -114 55 -238
139 -340 231 l-65 58 22 44 c12 24 51 106 88 182 95 200 173 274 280 265 99
-8 152 -76 143 -184 -4 -40 -1 -54 8 -54 37 0 30 130 -10 190 -38 58 -95 85
-181 84 -156 0 -264 -93 -380 -324 l-47 -94 -24 29 c-49 61 -129 250 -149 352
-6 32 -6 32 51 49 185 54 372 186 460 326 14 21 31 64 39 96 46 172 -95 272
-304 216z m203 -28 c18 -7 43 -26 55 -42 20 -25 22 -38 19 -94 -2 -42 -12 -83
-28 -115 -30 -62 -156 -188 -232 -233 -75 -44 -205 -100 -243 -104 l-30 -3 1
80 c1 102 17 170 63 270 45 97 130 193 203 229 59 30 138 35 192 12z m-574
-718 c26 -111 117 -273 206 -368 52 -56 54 -46 -26 -165 -94 -140 -241 -248
-355 -261 -69 -8 -124 9 -177 56 -184 161 -94 522 176 709 73 50 129 80 153
81 6 0 17 -24 23 -52z m2100 -473 c195 -41 301 -161 245 -279 -35 -74 -135
-141 -251 -171 -195 -49 -573 -33 -849 36 -113 28 -235 69 -235 79 0 15 145
104 286 175 298 150 583 207 804 160z m-2076 -793 c50 -125 95 -241 102 -258
13 -31 13 -32 -88 -140 -56 -60 -106 -110 -110 -112 -4 -2 -8 163 -8 367 0
204 3 371 8 371 4 0 47 -103 96 -228z"/>
<path d="M8377 4022 c-15 -15 -27 -34 -27 -41 0 -7 20 -39 45 -71 51 -66 55
-80 23 -80 -13 0 -46 -11 -74 -24 -230 -107 -278 -402 -92 -578 65 -62 135
-88 236 -88 87 0 109 8 94 35 -8 15 -22 18 -88 17 -50 -1 -90 4 -109 12 -30
14 -29 14 33 15 45 1 62 5 62 15 0 9 -19 15 -65 18 -73 6 -107 24 -135 71 -18
28 -20 51 -20 195 l0 163 28 26 c106 98 271 106 387 18 38 -30 49 -34 66 -24
21 11 21 11 -7 40 -31 32 -136 89 -166 89 -28 0 -22 12 37 70 30 30 55 58 55
62 0 5 -12 26 -26 48 l-27 40 -101 0 c-99 0 -103 -1 -129 -28z m85 -4 c-7 -7
-12 -8 -12 -2 0 14 12 26 19 19 2 -3 -1 -11 -7 -17z m-32 -20 c0 -5 -12 -8
-27 -8 -26 0 -26 0 -8 20 14 16 20 17 27 8 4 -7 8 -16 8 -20z m140 22 c0 -5
-4 -10 -10 -10 -5 0 -10 5 -10 10 0 6 5 10 10 10 6 0 10 -4 10 -10z m-32 -20
c11 -19 10 -20 -28 -20 -43 0 -47 3 -27 25 17 20 40 18 55 -5z m82 -22 c0 -3
-9 -4 -20 -1 -20 5 -26 23 -13 36 6 6 32 -21 33 -35z m-169 -65 c10 -29 16
-53 14 -53 -5 0 -75 99 -75 106 0 3 10 4 22 2 16 -2 26 -16 39 -55z m89 40 c0
-15 -33 -93 -39 -93 -4 0 -14 23 -23 50 l-16 50 39 0 c21 0 39 -3 39 -7z m70
0 c-1 -14 -70 -88 -70 -76 0 27 34 83 52 83 10 0 18 -3 18 -7z"/>
<path d="M8813 3695 c-72 -20 -125 -56 -172 -115 -98 -124 -101 -292 -9 -428
90 -131 285 -180 431 -108 74 36 147 117 177 195 31 84 26 194 -13 274 -72
146 -255 227 -414 182z m232 -68 c103 -52 158 -139 163 -258 5 -99 -20 -161
-92 -227 -120 -109 -287 -110 -410 -1 -143 125 -109 395 59 481 63 33 85 38
160 34 51 -2 84 -10 120 -29z"/>
<path d="M8799 3610 c-13 -8 -15 -23 -11 -87 5 -100 -21 -175 -83 -240 -38
-39 -42 -48 -32 -64 7 -11 15 -19 18 -19 16 0 103 105 122 148 18 38 22 66 22
149 0 105 -8 129 -36 113z"/>
</g>
</svg>
