<?xml version="1.0" standalone="no"?>
<!DOCTYPE svg PUBLIC "-//W3C//DTD SVG 20010904//EN"
 "http://www.w3.org/TR/2001/REC-SVG-20010904/DTD/svg10.dtd">
<svg version="1.0" xmlns="http://www.w3.org/2000/svg"
 width="500.000000pt" height="500.000000pt" viewBox="0 0 500.000000 500.000000"
 preserveAspectRatio="xMidYMid meet">

<g transform="translate(0.000000,500.000000) scale(0.100000,-0.100000)"
fill="#000000" stroke="none">
<path d="M1894 3519 c-17 -5 -48 -26 -69 -48 -36 -37 -39 -38 -76 -28 -117 29
-220 -63 -206 -186 8 -63 44 -125 104 -175 l46 -40 -33 -29 c-46 -38 -98 -96
-136 -149 -70 -99 -121 -286 -110 -403 32 -349 290 -606 629 -627 83 -5 137 1
246 28 8 2 28 -21 50 -57 49 -83 172 -204 251 -248 107 -58 197 -81 325 -81
132 0 206 18 320 77 155 81 269 223 326 407 34 109 32 264 -4 375 -34 102 -87
192 -159 268 l-57 61 27 16 c44 27 94 82 113 125 22 48 24 135 4 174 -35 69
-114 104 -188 84 -38 -11 -41 -10 -76 27 -111 117 -277 44 -298 -130 -3 -27 0
-70 6 -96 7 -25 11 -48 9 -49 -2 -2 -30 -6 -63 -10 -33 -4 -85 -13 -116 -21
-31 -8 -59 -14 -62 -14 -3 0 -22 30 -43 67 -97 173 -300 305 -496 320 -38 3
-68 7 -68 8 0 1 7 22 15 45 19 55 19 151 -1 198 -21 51 -71 100 -114 112 -41
12 -54 11 -96 -1z m102 -68 c98 -60 78 -246 -42 -376 -31 -34 -38 -37 -74 -32
-109 14 -243 109 -270 191 -33 102 48 182 145 142 55 -23 69 -20 88 19 18 37
69 75 102 75 11 0 34 -9 51 -19z m254 -370 c174 -48 347 -212 404 -384 57
-170 37 -361 -55 -512 -35 -58 -121 -155 -137 -155 -5 0 -12 14 -16 31 -5 28
0 38 38 79 85 91 136 226 136 360 0 233 -154 445 -370 510 -36 11 -104 24
-152 28 l-88 7 24 30 c24 31 25 31 98 24 40 -3 93 -12 118 -18z m898 -11 c18
-11 42 -36 54 -56 22 -38 20 -38 104 -13 104 31 169 -72 114 -181 -35 -69
-157 -143 -261 -157 -33 -5 -39 -1 -77 43 -107 125 -130 275 -55 346 47 43 73
47 121 18z m-1334 -73 l30 -13 -48 -28 c-147 -86 -256 -282 -256 -461 0 -232
169 -451 399 -519 68 -20 212 -21 275 -2 43 13 47 13 56 -4 21 -40 12 -48 -67
-66 -140 -31 -309 -1 -440 78 -122 73 -235 229 -268 370 -19 82 -19 218 0 293
32 125 120 262 213 330 52 38 63 40 106 22z m406 -43 c115 -32 233 -128 282
-228 l22 -47 -45 -39 c-91 -77 -172 -207 -204 -325 -9 -33 -20 -107 -23 -164
l-7 -105 -50 -13 c-103 -26 -222 -13 -330 38 -65 30 -175 139 -209 208 -103
202 -49 449 129 594 121 97 274 125 435 81z m777 -241 c13 -15 23 -31 23 -36
0 -4 -30 -4 -67 -1 -45 4 -93 1 -142 -10 -41 -9 -76 -15 -77 -13 -1 1 -5 14
-9 29 -8 33 9 42 108 57 94 14 138 7 164 -26z m353 -152 c112 -114 170 -258
170 -421 0 -174 -55 -305 -180 -431 -88 -88 -181 -139 -302 -163 -96 -20 -136
-20 -233 -1 -190 36 -357 166 -435 340 -41 89 -55 159 -54 265 2 155 56 288
168 408 27 28 52 52 56 52 4 0 10 -14 14 -31 5 -27 0 -38 -39 -82 -266 -304
-120 -780 271 -882 75 -19 194 -19 269 0 230 60 405 285 405 521 0 160 -96
354 -214 435 -20 13 -36 27 -36 31 0 6 45 26 64 27 5 1 39 -30 76 -68z m-292
32 c246 -61 395 -345 315 -598 -25 -80 -49 -120 -113 -188 -128 -137 -328
-181 -515 -113 -88 32 -166 94 -220 176 -25 37 -45 71 -45 75 0 4 33 42 74 85
127 134 184 265 193 452 l6 106 41 11 c84 22 159 21 264 -6z m-504 -180 c-21
-89 -81 -213 -103 -213 -11 0 3 67 25 118 39 94 93 159 78 95z"/>
<path d="M1650 3325 c-19 -23 -14 -81 10 -120 39 -63 149 -114 158 -74 2 11
-12 25 -40 42 -61 36 -81 62 -88 114 -5 50 -19 63 -40 38z"/>
<path d="M3350 2907 c0 -36 -6 -48 -32 -74 -18 -17 -48 -38 -65 -47 -36 -18
-43 -43 -16 -53 21 -8 98 33 128 69 50 60 53 148 5 148 -17 0 -20 -7 -20 -43z"/>
</g>
</svg>
