<?xml version="1.0" standalone="no"?>
<!DOCTYPE svg PUBLIC "-//W3C//DTD SVG 20010904//EN"
 "http://www.w3.org/TR/2001/REC-SVG-20010904/DTD/svg10.dtd">
<svg version="1.0" xmlns="http://www.w3.org/2000/svg"
 width="512.000000pt" height="512.000000pt" viewBox="0 0 512.000000 512.000000"
 preserveAspectRatio="xMidYMid meet">

<g transform="translate(0.000000,512.000000) scale(0.100000,-0.100000)"
fill="#000000" stroke="none">
<path d="M2527 4468 c-9 -7 -230 -287 -492 -623 -308 -395 -475 -618 -475
-632 0 -13 9 -32 20 -43 18 -18 33 -20 130 -20 l110 0 0 -380 0 -379 -227
-162 c-126 -89 -247 -178 -270 -196 l-43 -34 0 -663 c0 -630 1 -664 18 -679
17 -16 119 -17 1264 -17 1193 0 1246 1 1261 18 15 17 17 78 17 676 l0 658 -22
19 c-13 10 -124 92 -248 180 -124 89 -235 171 -247 182 l-23 20 0 379 0 378
110 0 c97 0 112 2 130 20 11 11 20 30 20 43 0 14 -167 237 -475 632 -262 336
-483 616 -492 623 -9 6 -24 12 -33 12 -9 0 -24 -6 -33 -12z m438 -663 c220
-283 401 -519 403 -524 2 -6 -31 -11 -80 -13 -77 -3 -83 -5 -95 -28 -10 -19
-13 -117 -13 -392 0 -203 -2 -368 -5 -368 -3 0 -136 95 -297 212 -197 142
-301 211 -318 211 -17 0 -123 -70 -320 -211 l-295 -212 -5 379 c-4 300 -8 381
-19 394 -10 13 -31 17 -93 17 -52 0 -78 4 -76 11 5 14 802 1038 808 1038 3 0
185 -231 405 -514z m183 -1456 l572 -414 0 -587 0 -588 -419 0 -420 0 -3 328
-3 327 -26 55 c-36 78 -80 124 -151 160 -52 26 -72 30 -138 30 -132 0 -230
-65 -289 -190 l-26 -55 -3 -327 -3 -328 -420 0 -419 0 0 593 1 592 577 412
c317 227 582 411 587 409 6 -2 268 -190 583 -417z m-498 -829 c47 -24 84 -71
99 -125 7 -25 11 -154 11 -337 l0 -298 -200 0 -200 0 0 298 c0 314 5 354 47
410 52 69 162 93 243 52z"/>
<path d="M2517 3922 c-13 -15 -17 -39 -17 -115 l0 -97 -113 0 c-75 0 -118 -4
-129 -12 -27 -22 -30 -53 -7 -81 20 -26 23 -27 135 -27 l114 0 0 -250 c0 -237
1 -251 20 -270 11 -11 29 -20 40 -20 11 0 29 9 40 20 19 19 20 33 20 270 l0
250 114 0 c112 0 115 1 135 27 23 28 20 59 -7 81 -11 8 -54 12 -129 12 l-113
0 0 98 c0 83 -3 102 -18 115 -24 22 -65 21 -85 -1z"/>
<path d="M2451 2374 c-170 -85 -170 -333 1 -418 141 -70 305 7 339 159 33 148
-78 285 -231 285 -41 0 -71 -7 -109 -26z m170 -110 c29 -15 59 -65 59 -100 0
-31 -33 -85 -61 -99 -61 -32 -135 -10 -163 49 -19 40 -20 53 -5 95 22 62 105
89 170 55z"/>
<path d="M1685 1636 c-59 -27 -117 -88 -136 -142 -20 -56 -20 -444 0 -467 12
-15 41 -17 237 -17 219 0 223 0 238 22 13 18 16 56 16 208 0 234 -9 273 -83
345 -80 78 -176 96 -272 51z m182 -127 c45 -42 53 -76 53 -234 l0 -145 -135 0
-135 0 0 138 c0 75 4 152 10 171 10 38 44 78 75 92 34 15 104 3 132 -22z"/>
<path d="M3252 1647 c-44 -14 -118 -80 -145 -131 -20 -38 -22 -58 -25 -249 -3
-178 -1 -211 12 -232 l16 -25 224 0 c196 0 225 2 237 17 11 12 14 62 14 222 0
231 -5 259 -64 324 -67 75 -175 105 -269 74z m169 -143 c41 -39 49 -79 49
-236 l0 -138 -135 0 -135 0 0 144 c0 80 5 157 11 173 12 33 46 72 74 84 38 17
104 3 136 -27z"/>
</g>
</svg>
