<?xml version="1.0" standalone="no"?>
<!DOCTYPE svg PUBLIC "-//W3C//DTD SVG 20010904//EN"
 "http://www.w3.org/TR/2001/REC-SVG-20010904/DTD/svg10.dtd">
<svg version="1.0" xmlns="http://www.w3.org/2000/svg"
 width="512.000000pt" height="512.000000pt" viewBox="0 0 512.000000 512.000000"
 preserveAspectRatio="xMidYMid meet">

<g transform="translate(0.000000,512.000000) scale(0.100000,-0.100000)"
fill="#000000" stroke="none">
<path d="M105 5101 c-48 -22 -69 -44 -90 -94 -20 -49 -19 -93 5 -141 28 -59
4801 -4829 4852 -4851 49 -20 94 -19 143 4 48 22 69 44 90 94 20 49 19 93 -5
141 -13 27 -156 177 -404 425 l-384 384 69 90 c165 214 307 493 383 752 64
222 90 406 90 650 0 183 -11 296 -45 465 -83 410 -297 821 -578 1110 -99 102
-138 120 -213 99 -60 -16 -93 -42 -117 -92 -41 -85 -24 -144 75 -250 552 -595
680 -1463 325 -2192 -53 -107 -166 -288 -222 -354 l-20 -25 -208 208 -208 208
45 66 c94 142 165 314 203 495 28 133 31 359 5 497 -21 116 -72 273 -122 372
-81 162 -235 357 -310 393 -78 37 -192 -3 -229 -80 -25 -54 -17 -143 16 -183
175 -213 231 -310 276 -479 23 -85 26 -119 27 -253 0 -129 -3 -170 -22 -244
-24 -97 -73 -217 -116 -285 l-28 -44 -219 219 -219 218 -2 956 -3 955 -29 53
c-52 93 -137 142 -245 142 -34 0 -73 -8 -99 -20 -23 -11 -247 -182 -497 -380
-250 -198 -458 -360 -462 -360 -4 0 -305 297 -668 660 -459 459 -671 664 -697
675 -49 20 -94 19 -143 -4z m2485 -1668 l0 -648 -360 360 c-198 198 -359 363
-358 367 3 7 708 568 715 568 2 0 3 -291 3 -647z"/>
<path d="M464 3399 c-71 -27 -137 -88 -171 -157 l-28 -57 0 -625 c0 -617 0
-626 21 -671 31 -67 87 -124 152 -156 l57 -28 343 -3 342 -3 676 -535 c371
-294 690 -542 707 -551 18 -9 62 -18 99 -21 61 -4 74 -2 132 27 44 22 75 45
96 74 58 79 60 98 60 561 0 249 -4 436 -10 457 -14 48 -71 104 -124 119 -78
21 -175 -25 -209 -100 -8 -17 -14 -138 -17 -358 l-5 -332 -605 480 c-333 263
-625 490 -650 502 -44 22 -54 23 -377 26 l-333 3 0 509 0 510 312 0 311 0 43
25 c94 55 112 187 36 269 -52 55 -60 56 -449 55 -332 0 -362 -1 -409 -20z"/>
</g>
</svg>
