<?xml version="1.0" standalone="no"?>
<!DOCTYPE svg PUBLIC "-//W3C//DTD SVG 20010904//EN"
 "http://www.w3.org/TR/2001/REC-SVG-20010904/DTD/svg10.dtd">
<svg version="1.0" xmlns="http://www.w3.org/2000/svg"
 width="512.000000pt" height="512.000000pt" viewBox="0 0 512.000000 512.000000"
 preserveAspectRatio="xMidYMid meet">

<g transform="translate(0.000000,512.000000) scale(0.100000,-0.100000)"
fill="#000000" stroke="none">
<path d="M2055 4466 c-153 -31 -278 -93 -386 -194 -35 -31 -187 -213 -339
-403 -153 -190 -295 -360 -316 -377 -60 -50 -134 -72 -265 -82 -218 -17 -366
-85 -514 -234 -170 -172 -234 -337 -235 -609 0 -201 32 -336 112 -472 50 -85
190 -226 270 -274 116 -68 262 -111 373 -111 106 0 198 -30 265 -87 19 -15
158 -183 310 -373 152 -190 304 -371 339 -402 191 -177 466 -246 721 -182 95
23 235 95 311 157 120 100 215 250 262 413 l22 79 0 1245 0 1245 -22 79 c-48
166 -141 312 -265 415 -71 59 -213 132 -303 156 -85 22 -254 28 -340 11z m297
-448 c71 -33 138 -100 175 -176 l28 -57 0 -1225 0 -1225 -28 -57 c-37 -75
-104 -143 -175 -176 -50 -24 -69 -27 -157 -27 -113 0 -161 16 -230 76 -21 19
-163 189 -315 379 -152 190 -305 371 -339 402 -126 117 -285 182 -480 198 -64
5 -131 14 -149 19 -88 26 -185 112 -225 199 -20 42 -22 64 -22 212 0 189 9
221 86 305 77 83 176 125 301 125 115 0 261 43 375 111 99 59 170 136 436 469
276 346 323 399 375 432 91 56 243 63 344 16z"/>
<path d="M3325 3391 c-107 -48 -155 -187 -101 -289 8 -15 154 -166 325 -337
l311 -310 -319 -320 c-288 -290 -319 -324 -331 -367 -48 -180 135 -333 300
-249 14 7 166 153 338 324 l312 312 313 -312 c171 -171 323 -317 337 -324 133
-68 289 18 307 169 11 94 -5 115 -347 457 l-310 310 319 320 c332 333 341 344
341 425 0 78 -53 159 -125 191 -49 23 -123 24 -173 4 -25 -11 -142 -120 -349
-328 l-313 -312 -312 312 c-208 208 -325 317 -350 328 -50 20 -124 19 -173 -4z"/>
</g>
</svg>
