<?xml version="1.0" standalone="no"?>
<!DOCTYPE svg PUBLIC "-//W3C//DTD SVG 20010904//EN"
 "http://www.w3.org/TR/2001/REC-SVG-20010904/DTD/svg10.dtd">
<svg version="1.0" xmlns="http://www.w3.org/2000/svg"
 width="512.000000pt" height="512.000000pt" viewBox="0 0 512.000000 512.000000"
 preserveAspectRatio="xMidYMid meet">

<g transform="translate(0.000000,512.000000) scale(0.100000,-0.100000)"
fill="#000000" stroke="none">
<path d="M1892 4645 c-43 -13 -95 -48 -133 -88 -12 -12 -97 -174 -190 -359
l-169 -338 -99 0 -99 0 -4 88 c-5 105 -28 162 -88 222 -76 76 -109 85 -310 85
-201 0 -234 -9 -310 -85 -60 -60 -83 -118 -88 -221 l-4 -87 -87 -4 c-103 -5
-161 -28 -221 -88 -23 -23 -52 -63 -64 -89 l-21 -46 0 -1475 0 -1475 21 -46
c28 -60 93 -125 153 -153 l46 -21 2335 0 2335 0 46 21 c60 28 125 93 153 153
l21 46 0 1475 0 1475 -21 46 c-28 60 -93 125 -153 153 -45 21 -56 21 -634 24
l-587 3 -169 337 c-180 359 -200 390 -291 435 -45 22 -46 22 -685 24 -514 2
-648 -1 -683 -12z m1302 -206 c18 -14 76 -119 167 -300 l139 -279 -940 0 -940
0 139 279 c91 181 149 286 167 300 27 21 31 21 634 21 603 0 607 0 634 -21z
m-2227 -411 c23 -24 28 -38 31 -98 l4 -70 -202 0 -202 0 4 69 c4 72 20 103 63
122 11 5 77 8 147 6 124 -2 128 -3 155 -29z m3920 -401 l28 -27 3 -270 3 -270
-713 0 -712 0 -51 49 c-156 153 -399 276 -645 328 -117 24 -363 24 -480 0
-246 -52 -489 -175 -645 -328 l-51 -49 -712 0 -713 0 3 269 c3 253 4 270 23
291 11 12 29 26 40 31 11 4 1049 7 2307 6 l2288 -2 27 -28z m-2157 -382 c451
-73 812 -416 905 -860 116 -552 -212 -1108 -752 -1275 -313 -97 -655 -47 -928
135 -261 174 -429 435 -480 746 -86 535 244 1062 766 1220 159 48 327 60 489
34z m-1314 -467 c-52 -96 -106 -247 -132 -368 -25 -118 -26 -381 0 -498 30
-142 94 -311 149 -400 15 -23 27 -44 27 -47 0 -3 -283 -5 -630 -5 l-630 0 0
700 0 700 631 0 630 0 -45 -82z m3504 -618 l0 -700 -630 0 c-346 0 -630 2
-630 5 0 3 12 24 27 47 55 89 119 258 149 400 25 116 25 380 0 496 -30 142
-94 311 -149 400 -15 23 -27 44 -27 47 0 3 284 5 630 5 l630 0 0 -700z m-3245
-949 c156 -153 399 -276 645 -328 117 -24 363 -24 480 0 246 52 489 175 645
328 l51 49 712 0 713 0 -3 -270 -3 -270 -28 -27 -27 -28 -2300 0 -2300 0 -27
28 -28 27 -3 270 -3 270 713 0 712 0 51 -49z"/>
<path d="M2224 4250 c-32 -13 -64 -59 -64 -91 0 -18 11 -41 29 -61 l29 -33
336 -3 335 -3 33 30 c27 24 33 36 33 71 0 35 -6 47 -33 71 l-32 29 -323 -1
c-177 0 -332 -4 -343 -9z"/>
<path d="M3984 3450 c-32 -13 -64 -59 -64 -91 0 -40 46 -88 91 -95 31 -5 42
-1 70 24 28 25 34 37 34 72 0 35 -6 47 -33 71 -33 29 -60 35 -98 19z"/>
<path d="M4384 3450 c-32 -13 -64 -59 -64 -91 0 -18 11 -41 29 -61 l29 -33
135 -3 135 -4 33 30 c28 25 34 37 34 72 0 35 -6 47 -33 71 -32 29 -33 29 -155
28 -67 0 -132 -4 -143 -9z"/>
<path d="M2397 3045 c-276 -53 -519 -237 -642 -490 -70 -142 -88 -224 -88
-395 0 -118 4 -160 22 -225 68 -251 246 -468 476 -580 142 -70 223 -88 395
-88 172 0 253 18 395 88 230 112 408 329 476 580 18 65 22 107 22 225 0 171
-18 253 -88 395 -112 230 -333 411 -580 475 -106 28 -283 35 -388 15z m301
-201 c44 -8 118 -35 172 -61 81 -39 108 -58 182 -133 72 -72 94 -103 131 -181
102 -209 102 -409 0 -618 -37 -78 -59 -109 -131 -181 -74 -75 -101 -94 -182
-133 -211 -102 -409 -102 -620 0 -81 39 -108 58 -182 133 -72 72 -94 103 -131
181 -50 102 -77 212 -77 309 0 97 27 207 77 309 37 78 59 109 131 181 74 74
101 94 182 133 153 74 292 93 448 61z"/>
<path d="M2443 2645 c-182 -49 -320 -189 -368 -372 -23 -89 -20 -137 13 -173
17 -19 40 -33 63 -36 30 -5 41 -1 68 22 26 24 33 41 42 94 14 87 38 139 89
190 51 51 107 77 190 88 80 11 115 43 115 103 0 34 -6 46 -33 70 -37 34 -90
38 -179 14z"/>
</g>
</svg>
