<?xml version="1.0" standalone="no"?>
<!DOCTYPE svg PUBLIC "-//W3C//DTD SVG 20010904//EN"
 "http://www.w3.org/TR/2001/REC-SVG-20010904/DTD/svg10.dtd">
<svg version="1.0" xmlns="http://www.w3.org/2000/svg"
 width="500.000000pt" height="500.000000pt" viewBox="0 0 500.000000 500.000000"
 preserveAspectRatio="xMidYMid meet">

<g transform="translate(0.000000,500.000000) scale(0.100000,-0.100000)"
fill="#000000" stroke="none">
<path d="M1968 3490 c-250 -39 -466 -237 -534 -490 -26 -95 -24 -234 5 -337
45 -160 62 -182 575 -695 323 -324 473 -468 488 -468 33 0 941 918 991 1002
91 152 118 357 68 518 -65 214 -226 378 -438 448 -64 20 -98 25 -188 26 -153
0 -269 -36 -387 -120 l-48 -34 -47 34 c-136 96 -323 141 -485 116z m247 -115
c74 -20 163 -67 219 -117 24 -21 54 -38 66 -38 12 0 43 18 68 41 54 47 164
101 241 119 76 18 230 8 309 -20 144 -51 283 -191 334 -337 33 -96 33 -279 0
-368 -41 -111 -101 -179 -532 -610 l-420 -420 -443 445 c-396 398 -446 452
-475 510 -78 163 -83 339 -13 494 63 141 217 266 376 306 53 14 208 11 270 -5z"/>
<path d="M1702 3004 c-36 -25 -56 -161 -29 -198 16 -21 66 -19 77 4 16 31 30
161 20 179 -13 25 -44 32 -68 15z"/>
<path d="M1707 2702 c-22 -25 -22 -33 9 -95 19 -38 92 -118 277 -304 258 -259
280 -276 315 -241 30 30 10 56 -227 294 -167 168 -248 257 -273 299 -38 66
-70 81 -101 47z"/>
</g>
</svg>
