<?xml version="1.0" standalone="no"?>
<!DOCTYPE svg PUBLIC "-//W3C//DTD SVG 20010904//EN"
 "http://www.w3.org/TR/2001/REC-SVG-20010904/DTD/svg10.dtd">
<svg version="1.0" xmlns="http://www.w3.org/2000/svg"
 width="512.000000pt" height="512.000000pt" viewBox="0 0 512.000000 512.000000"
 preserveAspectRatio="xMidYMid meet">

<g transform="translate(0.000000,512.000000) scale(0.100000,-0.100000)"
fill="#000000" stroke="none">
<path d="M2315 5109 c-605 -62 -1148 -321 -1574 -750 -593 -597 -850 -1439
-696 -2275 183 -991 961 -1798 1945 -2019 208 -47 322 -59 560 -59 318 -1 533
32 810 124 941 310 1610 1124 1742 2120 16 123 16 508 0 625 -84 593 -331
1094 -743 1504 -389 387 -876 629 -1439 716 -126 19 -477 28 -605 14z m471
-200 c844 -82 1581 -614 1931 -1394 84 -187 146 -403 180 -625 25 -162 24
-501 -1 -665 -78 -514 -306 -966 -671 -1330 -313 -313 -677 -520 -1095 -624
-465 -116 -977 -85 -1413 85 -1162 453 -1773 1707 -1412 2897 230 759 861
1372 1629 1581 281 77 571 103 852 75z"/>
<path d="M2481 3645 c-302 -66 -524 -231 -690 -512 l-43 -73 -330 0 -330 0
-29 -29 -29 -29 0 -442 0 -442 29 -29 29 -29 330 0 330 0 43 -72 c191 -324
480 -510 819 -525 114 -5 115 -5 141 21 15 14 29 40 33 57 8 41 8 1997 0 2038
-4 17 -18 42 -32 56 -23 23 -31 25 -116 24 -50 0 -120 -7 -155 -14z m104
-1086 l0 -894 -30 3 c-129 13 -301 93 -406 190 -91 84 -148 159 -212 279 -33
62 -61 102 -77 110 -18 9 -104 13 -327 13 l-303 0 0 300 0 300 303 0 c223 0
309 4 327 13 16 8 44 48 77 110 115 215 265 357 455 429 55 21 166 47 183 44
7 -2 10 -309 10 -897z"/>
<path d="M3559 3511 c-22 -23 -29 -39 -29 -69 0 -35 9 -50 68 -119 116 -135
180 -245 232 -403 110 -327 61 -702 -129 -990 -20 -30 -66 -90 -103 -133 -59
-69 -68 -84 -68 -119 0 -55 42 -98 97 -98 34 0 45 7 109 74 161 167 280 402
331 656 24 118 24 383 0 502 -51 252 -169 487 -331 654 -64 67 -75 74 -109 74
-29 0 -46 -7 -68 -29z"/>
<path d="M3319 3111 c-44 -44 -40 -86 14 -153 66 -80 95 -130 122 -212 66
-198 26 -402 -114 -575 -62 -78 -68 -116 -22 -162 39 -39 96 -40 141 -3 73 62
165 221 202 351 32 111 32 295 0 406 -37 130 -129 289 -202 351 -45 37 -102
36 -141 -3z"/>
<path d="M3019 2841 c-40 -41 -40 -93 1 -143 39 -47 50 -78 50 -138 0 -60 -11
-91 -50 -138 -41 -50 -41 -102 -1 -143 44 -43 98 -41 146 6 140 141 142 403 3
546 -32 33 -44 39 -79 39 -31 0 -47 -6 -70 -29z"/>
</g>
</svg>
