<?xml version="1.0" standalone="no"?>
<!DOCTYPE svg PUBLIC "-//W3C//DTD SVG 20010904//EN"
 "http://www.w3.org/TR/2001/REC-SVG-20010904/DTD/svg10.dtd">
<svg version="1.0" xmlns="http://www.w3.org/2000/svg"
 width="512.000000pt" height="512.000000pt" viewBox="0 0 512.000000 512.000000"
 preserveAspectRatio="xMidYMid meet">

<g transform="translate(0.000000,512.000000) scale(0.100000,-0.100000)"
fill="#000000" stroke="none">
<path d="M2101 4592 c-18 -10 -321 -265 -673 -567 l-639 -550 -329 -5 -328 -5
-43 -30 c-23 -16 -52 -48 -63 -70 -21 -40 -21 -49 -21 -805 0 -756 0 -765 21
-805 11 -22 40 -53 63 -70 l43 -30 328 -5 329 -5 622 -535 c342 -294 641 -548
663 -565 36 -27 48 -30 111 -30 61 0 77 4 113 28 23 15 52 46 64 70 l23 42 3
1884 c1 1242 -1 1896 -8 1921 -15 57 -51 103 -100 128 -55 27 -132 29 -179 4z
m-111 -2032 c0 -775 -3 -1410 -7 -1409 -5 0 -213 177 -463 392 l-455 393 0
624 0 624 455 393 c250 215 458 392 463 392 4 1 7 -633 7 -1409z m-1330 0 l0
-510 -130 0 -130 0 0 510 0 510 130 0 130 0 0 -510z"/>
<path d="M4105 4516 c-38 -17 -91 -73 -104 -109 -16 -42 -13 -124 5 -160 9
-18 44 -61 78 -97 157 -168 281 -345 385 -550 85 -167 134 -296 177 -466 55
-217 68 -332 68 -574 0 -242 -13 -357 -68 -574 -95 -373 -289 -725 -562 -1016
-83 -89 -97 -118 -92 -196 4 -70 20 -98 81 -148 43 -34 122 -46 182 -26 67 22
280 262 420 475 218 331 353 685 417 1100 31 201 31 569 0 770 -87 563 -313
1038 -687 1445 -107 117 -132 133 -208 137 -38 2 -73 -2 -92 -11z"/>
<path d="M3505 3875 c-5 -2 -22 -6 -37 -9 -39 -9 -98 -64 -119 -111 -41 -89
-20 -152 95 -282 127 -144 213 -293 271 -466 49 -149 67 -245 72 -402 12 -357
-107 -691 -343 -958 -112 -128 -134 -189 -98 -275 33 -80 100 -125 184 -125
70 0 100 16 176 95 204 212 356 488 427 773 44 176 52 241 52 445 0 204 -8
269 -52 445 -56 227 -183 483 -326 660 -62 76 -159 175 -187 190 -26 13 -98
26 -115 20z"/>
<path d="M2865 3272 c-73 -34 -125 -115 -125 -192 1 -40 36 -108 85 -162 179
-199 176 -525 -6 -723 -97 -105 -102 -214 -15 -301 66 -67 150 -80 234 -36 94
48 247 292 294 467 17 65 21 108 21 235 0 127 -4 170 -21 235 -47 177 -201
419 -296 468 -55 29 -122 32 -171 9z"/>
</g>
</svg>
