<?xml version="1.0" standalone="no"?>
<!DOCTYPE svg PUBLIC "-//W3C//DTD SVG 20010904//EN"
 "http://www.w3.org/TR/2001/REC-SVG-20010904/DTD/svg10.dtd">
<svg version="1.0" xmlns="http://www.w3.org/2000/svg"
 width="512.000000pt" height="512.000000pt" viewBox="0 0 512.000000 512.000000"
 preserveAspectRatio="xMidYMid meet">

<g transform="translate(0.000000,512.000000) scale(0.100000,-0.100000)"
fill="#000000" stroke="none">
<path d="M2477 4976 c-45 -17 -102 -59 -123 -91 -8 -13 -27 -26 -41 -30 -32
-8 -112 -62 -120 -80 -2 -8 -30 -19 -61 -26 -203 -42 -517 -192 -693 -330
l-36 -28 -52 19 c-102 39 -209 14 -282 -67 -20 -22 -51 -45 -68 -51 -150 -52
-215 -245 -126 -376 34 -50 39 -138 10 -196 -13 -25 -35 -79 -50 -121 -20 -57
-37 -86 -71 -119 -24 -23 -44 -46 -44 -50 0 -4 -12 -11 -28 -15 -15 -3 -44
-17 -65 -31 -114 -75 -147 -237 -71 -350 16 -23 24 -49 24 -77 0 -61 42 -141
96 -180 l43 -32 1 -1268 0 -1268 25 -24 24 -25 391 0 391 0 24 25 c30 29 30
48 6 143 l-19 72 154 0 c151 0 156 1 179 25 38 37 32 71 -26 150 -248 339
-477 780 -609 1169 l-26 80 197 195 c108 108 234 243 280 301 273 347 476 750
584 1162 52 200 76 346 100 618 l6 65 59 0 c57 0 60 -1 65 -27 4 -15 17 -43
31 -63 16 -24 24 -50 24 -78 0 -85 76 -191 156 -217 29 -10 33 -16 44 -73 116
-603 417 -1185 841 -1622 67 -69 99 -110 104 -132 3 -18 17 -48 31 -68 16 -24
24 -50 24 -78 0 -54 41 -139 84 -174 32 -25 32 -25 20 -73 -9 -34 -105 -187
-345 -546 -222 -332 -334 -510 -337 -531 -3 -24 2 -38 22 -57 25 -26 27 -26
180 -26 l154 0 -19 -73 c-24 -94 -24 -113 6 -142 l24 -25 391 0 391 0 24 25
25 24 0 324 c0 305 1 327 20 371 12 25 24 69 27 96 4 38 10 50 22 50 25 0 104
53 130 86 32 41 50 88 57 150 4 30 13 59 20 65 7 6 20 33 30 61 42 126 -21
262 -148 318 -26 11 -52 29 -57 38 -14 26 -7 76 17 113 11 19 24 46 27 62 7
25 11 27 54 27 62 0 128 23 173 60 47 39 88 121 88 177 0 28 8 54 24 77 90
133 26 325 -125 378 -17 6 -48 29 -67 50 -53 58 -104 82 -182 82 -36 1 -75 -3
-87 -7 l-23 -8 0 136 c0 316 -56 573 -185 843 -234 489 -683 856 -1210 987
-38 9 -74 23 -78 31 -10 18 -86 69 -117 79 -14 4 -40 25 -59 47 -18 21 -52 48
-74 60 -52 26 -149 33 -200 14z m147 -180 c17 -18 38 -43 46 -55 9 -14 33 -26
62 -32 93 -20 117 -100 52 -172 -34 -37 -36 -42 -30 -88 5 -34 2 -57 -8 -77
-25 -48 -93 -67 -132 -37 -10 8 -35 14 -54 14 -19 0 -44 -6 -54 -14 -39 -30
-107 -11 -132 37 -10 20 -13 43 -8 77 6 46 4 51 -30 88 -27 30 -36 49 -36 75
0 48 32 86 78 94 54 10 68 19 93 63 39 70 102 81 153 27z m-484 -230 c0 -7 13
-39 29 -70 18 -37 25 -59 17 -61 -6 -2 -54 -18 -106 -35 -117 -38 -250 -102
-353 -169 l-78 -51 -32 37 c-18 20 -45 44 -60 54 l-29 17 64 45 c126 89 299
176 443 223 82 27 105 29 105 10z m1078 -62 c416 -176 739 -512 910 -944 41
-102 89 -304 102 -422 5 -54 10 -183 10 -287 l0 -190 -27 -15 c-54 -28 -120
-114 -125 -163 -1 -10 -5 135 -8 322 -6 292 -10 355 -28 444 -43 206 -116 385
-229 555 -81 123 -272 318 -390 400 -46 32 -83 64 -83 72 0 49 -77 140 -145
171 -22 10 -62 40 -88 66 -56 57 -52 56 101 -9z m-220 -103 c15 -16 37 -43 50
-60 15 -19 32 -31 47 -31 58 0 105 -47 105 -104 0 -13 -16 -43 -35 -66 -32
-38 -35 -46 -33 -102 2 -57 -1 -63 -30 -89 -36 -32 -73 -37 -112 -14 -14 8
-38 14 -55 14 -16 0 -41 -6 -55 -14 -41 -23 -78 -18 -111 15 -27 26 -29 34
-27 89 2 55 -1 63 -26 90 l-29 30 29 7 c105 25 186 114 201 219 5 39 9 45 30
45 14 0 36 -12 51 -29z m-758 -183 c0 -35 -5 -112 -10 -173 -67 -735 -366
-1373 -890 -1895 l-135 -135 -3 94 -3 95 57 57 c54 55 58 57 120 62 130 10
218 95 238 230 4 26 19 70 33 97 14 27 28 70 31 97 3 32 30 94 83 198 194 375
292 734 317 1165 l7 124 65 22 c93 32 90 33 90 -38z m-922 23 c15 -16 37 -43
50 -60 15 -19 32 -31 47 -31 58 0 105 -47 105 -104 0 -13 -16 -43 -35 -66 -32
-38 -35 -46 -33 -102 2 -57 -1 -63 -30 -89 -36 -32 -73 -37 -112 -14 -14 8
-38 14 -55 14 -16 0 -41 -6 -55 -14 -41 -23 -78 -18 -111 15 -27 26 -29 35
-28 90 2 53 -1 64 -23 88 -38 40 -50 70 -43 102 8 39 58 80 96 80 32 0 79 38
79 64 0 24 50 56 87 56 25 0 42 -8 61 -29z m593 -223 c-23 -255 -84 -519 -171
-738 -51 -128 -140 -312 -149 -308 -3 2 -31 16 -63 31 -31 15 -63 39 -72 52
-9 14 -34 36 -55 50 -36 24 -39 30 -44 84 -5 62 -32 124 -66 155 -27 25 -26
39 5 117 51 126 59 136 106 143 80 13 161 76 192 151 8 17 17 56 21 86 4 30
16 65 26 78 11 13 19 29 19 36 0 26 46 68 148 135 58 39 107 68 110 66 2 -3
-1 -65 -7 -138z m1506 -3 c236 -189 403 -463 475 -780 18 -79 21 -132 24 -445
l4 -355 -61 65 c-285 302 -524 785 -609 1229 l-21 110 25 38 c14 21 31 66 36
98 12 67 25 105 38 105 4 0 44 -29 89 -65z m-389 -252 c43 -5 53 -9 57 -27 47
-226 97 -395 166 -562 127 -306 324 -611 543 -842 63 -66 68 -75 52 -84 -10
-6 -35 -25 -55 -44 l-37 -33 -60 67 c-225 252 -372 469 -508 753 -107 223
-178 428 -235 675 -27 116 -26 118 2 109 12 -4 46 -9 75 -12z m-1971 -144 c15
-6 49 -14 75 -18 l46 -6 -25 -62 -25 -62 -39 29 c-22 16 -53 32 -70 35 -34 8
-34 10 -14 59 17 41 15 40 52 25z m-69 -245 c12 -8 30 -30 39 -47 20 -39 41
-56 70 -57 36 0 74 -22 89 -51 24 -48 18 -67 -30 -90 -41 -19 -116 -84 -116
-100 0 -4 -13 -10 -29 -14 -41 -9 -106 -58 -133 -100 -30 -45 -67 -47 -109 -5
-27 26 -29 34 -27 89 2 53 -1 64 -24 88 -38 41 -50 71 -43 103 8 36 58 80 91
80 38 0 62 17 84 60 11 21 28 44 37 49 27 15 76 13 101 -5z m320 -400 c12 -8
30 -30 39 -47 20 -39 41 -56 70 -57 56 0 103 -48 103 -104 0 -13 -16 -43 -35
-66 -33 -39 -35 -46 -33 -102 3 -56 1 -61 -30 -89 -36 -32 -72 -37 -112 -14
-14 8 -38 14 -55 14 -16 0 -41 -6 -55 -14 -41 -23 -78 -18 -111 15 -27 26 -29
34 -27 89 2 53 -1 64 -24 88 -38 41 -50 71 -43 103 8 36 58 80 91 80 38 0 62
17 84 60 11 21 28 44 37 49 27 15 76 13 101 -5z m3241 -349 c16 -8 34 -28 41
-45 16 -38 46 -60 81 -60 36 0 86 -43 94 -80 7 -32 -5 -62 -43 -103 -23 -24
-26 -35 -24 -88 2 -55 0 -63 -27 -89 -18 -18 -40 -30 -56 -30 -35 0 -94 32
-130 70 -16 18 -51 42 -76 54 -26 12 -62 38 -81 57 -19 19 -47 44 -61 56 -61
49 -9 152 76 153 29 1 50 18 70 57 31 60 80 77 136 48z m-3649 -64 c0 -65 43
-146 97 -186 l42 -30 0 -1012 1 -1013 -80 0 -80 0 0 1151 c0 764 3 1148 10
1144 6 -3 10 -28 10 -54z m3284 -342 c19 -11 38 -29 41 -40 10 -29 46 -59 71
-59 57 0 104 -47 104 -104 0 -13 -16 -43 -35 -66 -33 -39 -35 -46 -33 -102 3
-56 1 -61 -30 -89 -36 -32 -72 -37 -112 -14 -14 8 -38 14 -55 14 -16 0 -41 -6
-55 -14 -41 -23 -78 -18 -111 15 -27 26 -29 34 -27 89 2 53 -1 64 -24 88 -38
41 -50 71 -43 103 8 37 58 80 94 80 35 0 65 22 81 60 13 31 51 59 82 60 9 0
33 -9 52 -21z m240 -614 c11 -8 28 -15 38 -15 31 0 73 -27 86 -55 20 -43 14
-71 -23 -115 -33 -39 -35 -46 -33 -102 3 -56 1 -61 -30 -89 -36 -32 -72 -37
-112 -14 -14 8 -38 14 -55 14 -16 0 -41 -6 -55 -14 -41 -23 -78 -18 -111 15
-27 26 -29 34 -27 89 2 53 -1 64 -24 88 -53 56 -58 111 -12 154 19 18 33 22
71 19 131 -8 178 -4 218 18 48 25 45 25 69 7z m-377 -518 c58 -38 109 -50 174
-43 56 5 59 4 65 -18 7 -28 -7 -59 -44 -99 -23 -24 -26 -35 -24 -88 2 -55 0
-63 -27 -89 -33 -33 -70 -38 -111 -15 -14 8 -38 14 -55 14 -16 0 -41 -6 -55
-14 -40 -23 -76 -18 -112 14 -31 28 -33 33 -30 89 2 56 0 63 -33 102 -19 23
-35 53 -35 65 0 57 47 105 103 105 24 0 56 28 77 68 11 23 12 23 40 -22 16
-25 46 -56 67 -69z m-2734 -349 l105 -418 -109 0 -109 0 1 428 c0 235 2 423 4
417 3 -5 51 -198 108 -427z m281 -42 c32 -49 65 -100 73 -113 l15 -23 -80 0
-80 0 -51 205 c-28 112 -51 208 -51 212 0 4 26 -37 58 -92 31 -55 84 -140 116
-189z m2062 149 c4 -15 -7 -78 -26 -155 l-32 -130 -84 0 -84 0 102 155 c57 85
106 155 110 155 4 0 10 -11 14 -25z m172 -265 c29 -11 61 -20 72 -20 19 0 20
-7 20 -120 l0 -120 -109 0 -109 0 35 140 c20 77 36 140 37 140 0 0 25 -9 54
-20z m412 -130 l0 -130 -80 0 -80 0 0 120 0 120 48 1 c26 0 56 4 67 9 44 19
45 16 45 -120z"/>
<path d="M2524 4650 c-30 -12 -64 -58 -64 -86 0 -13 13 -38 29 -56 57 -64 153
-28 153 57 0 61 -64 108 -118 85z"/>
<path d="M2893 4245 c-72 -31 -73 -124 -2 -161 78 -40 161 48 119 127 -10 18
-60 49 -77 49 -4 -1 -22 -7 -40 -15z"/>
<path d="M1213 4085 c-72 -31 -73 -124 -2 -161 78 -40 161 48 119 127 -10 18
-60 49 -77 49 -4 -1 -22 -7 -40 -15z"/>
<path d="M893 3205 c-72 -31 -73 -124 -2 -161 78 -40 161 48 119 127 -10 18
-60 49 -77 49 -4 -1 -22 -7 -40 -15z"/>
<path d="M1213 2805 c-72 -31 -73 -124 -2 -161 78 -40 161 48 119 127 -10 18
-60 49 -77 49 -4 -1 -22 -7 -40 -15z"/>
<path d="M4473 2463 c-58 -11 -85 -110 -40 -150 31 -29 64 -37 98 -22 30 12
59 54 59 84 0 32 -30 73 -61 84 -18 6 -32 10 -33 10 -1 -1 -11 -4 -23 -6z"/>
<path d="M4093 2055 c-72 -31 -73 -124 -2 -161 79 -40 161 48 118 128 -6 11
-26 26 -44 34 -40 16 -32 17 -72 -1z"/>
<path d="M4253 1525 c-72 -31 -73 -124 -2 -161 78 -40 161 48 119 127 -10 18
-60 49 -77 49 -4 -1 -22 -7 -40 -15z"/>
<path d="M3984 1050 c-76 -30 -67 -155 12 -174 52 -13 114 35 114 89 0 32 -30
73 -61 84 -37 13 -37 13 -65 1z"/>
</g>
</svg>
